<?xml version="1.0" standalone="no"?>
<!DOCTYPE svg PUBLIC "-//W3C//DTD SVG 20010904//EN"
 "http://www.w3.org/TR/2001/REC-SVG-20010904/DTD/svg10.dtd">
<svg version="1.0" xmlns="http://www.w3.org/2000/svg"
 width="1365.000000pt" height="656.000000pt" viewBox="0 0 1365.000000 656.000000"
 preserveAspectRatio="xMidYMid meet">
<metadata>
Created by potrace 1.16, written by Peter Selinger 2001-2019
</metadata>
<g transform="translate(0.000000,656.000000) scale(0.100000,-0.100000)"
fill="#000000" stroke="none">
<path d="M0 3275 l0 -3275 4890 0 4891 0 -7 35 c-4 23 -2 35 5 35 6 0 64 79
128 176 65 98 167 249 226 338 59 89 111 169 114 179 3 9 9 17 14 17 5 0 9 7
9 15 0 8 5 15 10 15 6 0 10 4 10 9 0 6 10 21 22 35 13 13 63 88 112 166 l89
142 -12 51 c-6 29 -73 233 -148 455 l-136 402 -326 0 -327 0 -209 -70 c-115
-38 -212 -70 -215 -70 -3 0 -16 32 -29 70 l-22 70 -655 0 -654 0 0 253 c0 236
-2 257 -23 325 l-24 72 49 51 c49 51 49 52 26 63 -22 11 -23 16 -26 170 -2
108 1 163 9 172 9 11 43 14 140 14 l128 0 41 59 c22 33 40 62 40 65 0 4 -76 6
-168 6 -117 0 -172 4 -180 12 -8 8 -12 59 -12 164 0 125 3 155 16 168 13 14
55 16 300 16 l285 0 39 63 40 62 -327 3 c-220 1 -331 6 -340 13 -18 15 -19
319 -1 337 9 9 88 12 296 12 265 0 283 1 278 18 -66 205 -135 391 -135 365 -1
-23 -6 -33 -17 -33 -14 0 -16 10 -12 68 6 80 -16 155 -57 196 -21 21 -25 32
-20 56 10 44 -3 90 -24 90 -14 0 -17 -6 -13 -25 2 -14 11 -25 18 -25 8 0 14
-4 14 -10 0 -5 -7 -10 -15 -10 -10 0 -15 -11 -15 -35 0 -24 5 -35 15 -35 8 0
15 -4 15 -10 0 -5 -13 -10 -30 -10 -29 0 -30 2 -30 44 l0 43 -40 0 c-45 0 -53
-12 -15 -21 55 -14 38 -66 -21 -66 -24 0 -34 5 -34 15 0 11 7 14 24 9 36 -9
41 12 5 25 -24 8 -30 15 -27 33 2 19 10 23 43 25 22 1 46 2 53 2 6 1 12 10 12
20 0 19 -1 19 -60 -1 l-60 -20 0 -54 c0 -47 -2 -54 -20 -54 -17 0 -20 7 -20
45 0 25 -4 45 -9 45 -6 0 -7 -15 -4 -33 6 -42 -13 -59 -63 -55 -52 4 -58 28
-7 25 28 -1 38 2 38 13 0 9 -11 16 -25 18 -25 3 -724 -231 -747 -249 -6 -6
-14 -6 -16 -1 -3 4 -60 168 -125 363 -66 194 -141 417 -167 494 -26 77 -51
144 -55 148 -4 4 -18 3 -31 -2 -77 -32 -980 -332 -987 -327 -4 2 -19 39 -32
80 l-23 75 25 20 c24 20 108 139 108 155 0 4 52 84 115 176 63 93 115 174 115
179 0 6 5 11 10 11 6 0 10 7 10 15 0 8 5 15 10 15 6 0 10 5 10 10 0 6 30 57
67 113 154 236 263 411 263 422 0 8 -37 14 -122 18 -68 4 -1503 7 -3190 7
l-3068 1 0 -3276z m1046 2718 c-4 -5 -35 -10 -69 -13 -55 -5 -63 -8 -83 -37
-12 -18 -38 -79 -59 -135 -21 -57 -44 -110 -52 -120 -15 -17 -53 -31 -53 -20
1 27 105 261 127 284 l27 28 -33 0 c-54 0 -121 -21 -136 -43 -8 -12 -15 -33
-15 -46 l0 -25 -21 21 c-27 26 -19 55 24 85 29 21 46 23 187 28 85 3 157 4
159 3 2 -2 1 -6 -3 -10z m442 -20 c2 -13 -4 -26 -15 -32 -16 -8 -19 -6 -18 17
0 23 -5 27 -33 30 -25 3 -39 -3 -62 -27 -43 -42 -38 -51 26 -51 l56 0 -31 -29
c-33 -31 -51 -68 -51 -107 0 -62 64 4 76 78 6 34 10 37 55 48 56 14 73 7 63
-23 -6 -20 -4 -19 21 6 28 27 68 36 80 17 3 -5 -8 -41 -25 -79 -16 -38 -30
-81 -30 -95 0 -28 -9 -33 -28 -14 -18 18 -15 51 13 109 13 29 22 55 20 58 -10
9 -54 -43 -85 -100 -17 -32 -38 -59 -46 -59 -19 0 -18 3 12 88 15 40 24 75 21
79 -10 9 -37 -17 -37 -35 0 -29 -51 -102 -81 -118 -18 -9 -41 -13 -55 -10 -42
11 -31 88 20 144 l21 24 -30 -4 c-27 -3 -32 -10 -62 -92 -36 -97 -56 -126 -85
-126 -17 0 -17 2 -4 23 8 12 17 32 20 44 l7 22 -40 -22 c-78 -43 -125 7 -83
90 35 67 101 108 130 79 13 -13 13 -18 -2 -40 -9 -15 -35 -38 -57 -53 -29 -19
-39 -32 -37 -47 4 -26 30 -23 72 7 30 21 76 109 59 114 -11 4 62 85 92 102 11
6 45 10 75 8 48 -2 55 -5 58 -24z m-358 -2 c0 -5 -19 -50 -41 -101 -23 -51
-44 -110 -46 -131 -3 -22 -9 -39 -12 -39 -13 0 -31 24 -31 42 0 17 -2 17 -38
-3 -28 -16 -46 -20 -66 -15 -27 7 -28 9 -24 55 6 58 35 103 82 125 39 18 66
12 66 -14 0 -20 -54 -77 -81 -85 -24 -8 -35 -45 -18 -56 28 -17 73 27 119 118
25 49 49 95 53 101 9 14 37 16 37 3z m620 -65 c0 -2 -13 -33 -30 -68 -33 -70
-37 -88 -16 -88 18 0 32 18 40 54 4 16 24 47 45 68 31 30 46 38 76 38 32 0 36
-3 33 -22 -2 -13 -11 -24 -20 -26 -13 -2 -16 1 -12 12 9 23 -19 20 -40 -3 -19
-21 -48 -106 -39 -115 23 -23 66 12 105 83 22 40 74 71 121 71 20 0 37 -3 37
-6 0 -4 -11 -38 -25 -76 -14 -38 -25 -82 -25 -99 0 -16 -4 -29 -8 -29 -14 0
-32 24 -32 43 0 18 -1 17 -26 -2 -32 -25 -60 -27 -72 -5 -9 16 -11 16 -33 0
-29 -20 -78 -21 -85 -1 -5 13 -8 13 -27 0 -28 -20 -66 -19 -74 1 -8 20 44 151
65 164 17 10 42 13 42 6z m305 -325 c101 -10 -726 -25 -948 -17 -100 3 -258 6
-352 8 -142 1 -156 3 -85 8 114 8 1297 9 1385 1z m6263 -3913 c8 -7 12 -7 12
0 0 6 21 10 53 9 51 -2 52 -3 55 -34 l3 -31 -88 1 -88 2 -3 28 c-4 34 -26 31
-30 -4 -4 -35 -54 -57 -88 -39 -15 8 -24 22 -24 36 0 13 -4 26 -10 29 -6 4
-10 -7 -10 -24 0 -21 -5 -31 -15 -31 -10 0 -15 10 -15 34 l0 34 118 0 c65 0
122 -4 130 -10z m922 -363 c0 -8 9 -15 20 -15 11 0 20 -6 20 -12 0 -9 3 -10 8
-2 4 6 25 11 47 10 36 -1 40 -4 40 -26 0 -23 -4 -25 -42 -26 -34 -2 -43 2 -43
15 -1 14 -2 14 -11 -1 -6 -12 -22 -18 -44 -18 -31 0 -35 3 -35 25 0 14 -4 25
-10 25 -5 0 -10 -11 -10 -25 0 -34 -20 -32 -21 3 l-2 27 -4 -28 -4 -28 -76 3
c-59 2 -78 7 -87 21 -16 25 4 51 43 55 17 2 31 -1 31 -6 0 -5 -10 -8 -22 -8
-18 1 -24 -5 -26 -26 -2 -16 0 -28 4 -28 20 0 84 24 84 32 0 5 -10 6 -21 3
-14 -5 -19 -3 -15 4 4 6 37 9 81 8 66 -2 75 0 75 16 0 9 5 17 10 17 6 0 10 -7
10 -15z m-688 -5 c5 -15 231 -17 236 -2 2 7 13 12 25 11 21 0 21 -1 2 -9 -22
-9 -24 -9 55 -13 19 -2 26 -8 28 -29 3 -27 1 -28 -37 -28 -37 0 -41 2 -41 26
0 14 -4 23 -10 19 -5 -3 -10 -14 -10 -25 0 -16 -10 -18 -95 -19 -57 0 -95 4
-95 10 0 5 7 12 15 15 23 9 18 19 -10 20 -20 2 -25 -3 -25 -22 0 -22 -4 -24
-50 -23 -47 2 -50 3 -51 28 l-2 26 -4 -26 c-4 -26 -6 -27 -76 -25 -70 1 -72 2
-72 26 0 25 1 25 89 27 49 1 94 7 100 13 13 13 23 13 28 0z m1210 0 c2 -5 40
-10 86 -11 45 -1 82 -5 82 -10 0 -5 -8 -6 -17 -2 -15 5 -16 4 -5 -8 11 -12 15
-11 27 5 10 13 22 17 40 13 17 -3 28 0 32 9 3 8 15 14 27 13 20 0 20 -1 1 -9
l-20 -9 20 -2 c11 -1 34 -2 50 -3 25 -1 31 -6 33 -28 3 -27 1 -28 -37 -28 -37
0 -41 2 -41 25 0 14 -4 25 -10 25 -5 0 -10 -11 -10 -25 0 -22 -4 -25 -33 -25
-18 0 -38 5 -45 12 -9 9 -12 9 -12 0 0 -8 -18 -12 -49 -12 -52 0 -79 17 -42
27 29 7 26 18 -4 19 -20 2 -25 -3 -25 -22 0 -22 -4 -24 -50 -24 -48 0 -50 1
-51 28 l-2 27 -4 -26 c-4 -26 -6 -27 -76 -25 -70 1 -72 2 -72 26 0 25 1 25 90
27 51 1 91 7 93 13 5 13 19 13 24 0z"/>
<path d="M8440 2776 c-85 -29 -162 -55 -170 -58 -8 -4 123 -7 292 -7 l307 -1
-21 60 -20 60 -116 -1 c-114 0 -121 -2 -272 -53z"/>
<path d="M10432 2608 c-17 -17 -17 -259 0 -276 17 -17 269 -17 286 0 8 8 12
53 12 138 0 85 -4 130 -12 138 -17 17 -269 17 -286 0z"/>
<path d="M8485 2546 c-58 -31 -74 -46 -96 -93 -48 -105 -3 -183 106 -182 50 1
87 20 115 59 l21 30 -30 0 c-17 0 -30 -3 -30 -7 4 -28 -3 -43 -22 -43 -11 0
-18 -3 -16 -7 6 -9 -58 -7 -90 2 -12 4 -24 18 -27 31 -8 30 3 122 15 130 5 3
6 10 3 16 -4 6 -2 8 4 4 6 -3 14 0 19 8 12 20 76 44 93 35 8 -4 23 -10 33 -13
11 -4 21 -15 24 -26 5 -20 43 -29 43 -10 0 23 -32 59 -47 53 -11 -4 -14 -2 -9
5 5 8 -2 12 -21 12 -16 0 -33 4 -38 9 -6 4 -27 -1 -50 -13z"/>
<path d="M8825 2546 c-14 -10 -25 -11 -42 -3 -32 14 -42 1 -45 -60 -2 -28 -6
-49 -10 -47 -6 4 -24 -88 -21 -113 0 -7 -3 -13 -8 -13 -5 0 -9 -9 -9 -19 0
-13 6 -18 17 -17 18 3 37 71 25 90 -3 5 0 6 5 3 6 -4 13 2 16 13 4 17 14 20
71 20 52 0 66 3 66 15 0 12 -14 15 -64 15 l-64 0 4 33 c1 17 4 34 5 37 1 3 1
9 0 13 -1 5 37 7 84 5 57 -3 84 -1 82 6 -2 6 -17 11 -33 11 -16 0 -33 6 -37
13 -10 16 -19 15 -42 -2z"/>
<path d="M9083 2523 c-4 -10 -14 -26 -22 -35 -9 -9 -25 -34 -36 -55 -11 -21
-26 -45 -33 -53 -7 -8 -12 -18 -12 -22 0 -11 -38 -48 -50 -48 -5 0 -10 -4 -10
-10 0 -5 8 -7 18 -3 14 5 13 3 -3 -11 -20 -17 -20 -17 0 -14 11 2 24 13 30 25
24 48 35 54 99 51 l61 -3 5 -35 c3 -22 11 -36 22 -38 14 -3 17 3 14 31 -2 19
-7 40 -11 47 -4 7 -9 38 -11 69 -5 94 -12 121 -35 121 -11 0 -23 -8 -26 -17z"/>
<path d="M9338 2526 c-15 -8 -29 -12 -31 -9 -8 7 -29 -36 -22 -46 3 -5 -1 -12
-7 -14 -10 -4 -9 -8 2 -16 8 -6 11 -11 6 -11 -5 0 -3 -6 3 -14 10 -12 7 -18
-19 -31 -21 -11 -30 -21 -26 -31 3 -8 2 -13 -3 -10 -5 3 -12 -1 -15 -10 -8
-21 -9 -18 14 -44 17 -19 25 -21 65 -16 33 5 50 14 62 33 24 36 26 63 7 84
-14 16 -14 19 9 34 27 17 41 53 31 80 -4 9 -12 14 -18 12 -6 -2 -15 2 -21 10
-8 11 -15 11 -37 -1z"/>
<path d="M9543 2514 c-32 -16 -69 -61 -59 -71 7 -7 -20 -33 -35 -33 -7 0 -8
-4 -2 -12 5 -7 8 -32 7 -55 -2 -53 19 -76 64 -67 18 4 32 10 32 15 0 5 5 8 11
7 5 -2 20 13 32 34 17 29 20 42 12 65 -9 23 -17 29 -48 31 -21 2 -37 -1 -37
-7 0 -6 -5 -11 -11 -11 -15 0 -1 40 25 70 22 27 55 29 69 4 10 -18 37 -18 37
0 0 20 -27 39 -45 32 -9 -3 -13 -2 -10 4 9 14 -5 12 -42 -6z"/>
<path d="M10500 121 c-173 -59 -322 -110 -330 -114 -8 -3 157 -6 367 -6 l382
-1 -34 98 c-43 128 -45 132 -59 131 -6 0 -153 -49 -326 -108z"/>
</g>
</svg>
